<!-- Generated by IcoMoon.io -->
<svg version="1.1" xmlns="http://www.w3.org/2000/svg" width="32" height="32" viewBox="0 0 32 32">
<title>search</title>
<path fill="#fff" d="M9.53 1.576c-2.719 1.569-4.663 4.104-5.476 7.136s-0.395 6.199 1.174 8.918c2.093 3.625 5.997 5.878 10.187 5.878 1.323 0 2.636-0.228 3.88-0.665l5.287 9.157 3.769-2.176-5.286-9.155c1.785-1.528 3.071-3.554 3.692-5.873 0.812-3.032 0.395-6.199-1.174-8.918-2.093-3.626-5.997-5.878-10.187-5.878-2.052 0-4.081 0.545-5.867 1.576zM21.814 8.054c0.988 1.712 1.251 3.706 0.739 5.615s-1.736 3.505-3.448 4.493c-1.125 0.65-2.401 0.993-3.691 0.993-2.64 0-5.099-1.418-6.417-3.701-0.988-1.712-1.251-3.706-0.739-5.615s1.736-3.505 3.448-4.493c1.125-0.649 2.401-0.993 3.691-0.993 2.64 0 5.099 1.418 6.417 3.701z"></path>
</svg>
